# xmcd
#
# Track frame offsets:
#   150
#   14738
#   28267
#   43221
#   57416
#   74406
#   88935
#   105849
#   121997
#   135582
#   150384
#   165093
#
# Disc length: 2407 seconds
#
# Revision: 0
# Processed by: cddbd v1.5.1PL0 Copyright (c) Steve Scherf et al.
# Submitted via: Media_Universe 3.0
#
DISCID=9b09650c
DTITLE=Billy Currington - Billy Currington
DYEAR=1900
DGENRE=Country
TTITLE0=I Got A Feeling
TTITLE1=Thats Just Me
TTITLE2=Hangin Around
TTITLE3=Off My Rocker
TTITLE4=Walk A Little Straighter
TTITLE5=Where The Girls Are
TTITLE6=Time With You
TTITLE7=When She Gets Close To Me
TTITLE8=Growin Up Down There
TTITLE9=Next Time
TTITLE10=Aint What It Used To Be
TTITLE11=Party For Two
EXTD=
EXTT0=
EXTT1=
EXTT2=
EXTT3=
EXTT4=
EXTT5=
EXTT6=
EXTT7=
EXTT8=
EXTT9=
EXTT10=
EXTT11=
PLAYORDER=
